# xmcd CD database file
#
# Track frame offsets:
#	183
#	15720
#	47130
#	67590
#	92983
#	117515
#	127998
#	144025
#	167740
#	175330
#	189070
#
# Disc length: 2815 seconds
#
# Revision: 0
# Processed by: cddbd v1.4PL0 Copyright (c) Steve Scherf et al.
# Submitted via: CDex 1.50beta10
#
DISCID=870afd0b
DTITLE=Yves Robert - Bruno Chevillon - Aaron Scott - Des satellites avec des traces de plumes
DYEAR=1989
DGENRE=Jazz
TTITLE0=Non, mais j'ai dormi
TTITLE1=Reconciliation
TTITLE2=Image ethnique
TTITLE3=Cltdcdc - Cahutchu rock
TTITLE4=Cashkin'kun cashkin
TTITLE5=Happy feet
TTITLE6=Protz vratchialmousk et tourniquet
TTITLE7=p
TTITLE8=Des satellites avec des traces de plumes
TTITLE9=Je dis ça mais moi c'est pareil en pire
TTITLE10=Cahutchuca
EXTD=YEAR: 1989
EXTT0=
EXTT1=
EXTT2=
EXTT3=
EXTT4=
EXTT5=
EXTT6=
EXTT7=
EXTT8=
EXTT9=
EXTT10=
PLAYORDER=
